<svg xmlns="http://www.w3.org/2000/svg" xmlns:xlink="http://www.w3.org/1999/xlink" version="1.1" x="0px" y="0px" viewBox="0 0 100 100" enable-background="new 0 0 100 100" xml:space="preserve"><path d="M91.456,41.302c-2.252-2.304-4.814-4.437-8.296-4.437c-0.81,0-1.584,0.106-2.35,0.322  c5.944-6.271,9.682-10.352,11.813-13.867c3.218-5.303,2.835-9.872-1.168-13.967c-2.251-2.304-4.814-4.437-8.296-4.437  c-4.684,0-8.163,3.553-15.785,11.337c-2.342,2.392-4.996,5.103-8.243,8.302c-2.105,2.074-3.734,4.103-5.171,5.893  c-1.567,1.951-3.185,3.966-4.122,4.256c-0.897-0.531-2.716-2.645-4.068-4.215c-1.439-1.674-3.072-3.57-5.015-5.485  c-3.447-3.395-6.337-6.362-8.659-8.747C24.642,8.603,21.239,5.109,16.532,5.109c-3.409,0-6.039,2.101-8.162,4.154  c-4.106,3.972-4.551,8.68-1.322,13.993c2.177,3.581,6.01,7.748,12.14,14.209c-0.863-0.273-1.734-0.408-2.657-0.408  c-3.409,0-6.039,2.1-8.162,4.154c-4.105,3.972-4.55,8.679-1.322,13.992c2.428,3.995,6.919,8.72,14.36,16.546  c1.1,1.156,3.834,4.039,3.834,4.039c9.021,9.524,14.501,15.311,19.378,17.749c1.622,0.914,3.338,1.378,5.104,1.378h0.287  c1.764,0,3.479-0.464,5.102-1.377c4.876-2.437,10.354-8.221,19.372-17.741c0,0,2.727-2.875,3.818-4.022  c7.424-7.809,11.905-12.522,14.322-16.508C95.842,49.967,95.459,45.398,91.456,41.302z M11.504,9.799  c6.777-6.557,7.906-2.199,26.088,15.712c5.592,5.51,8.755,11.25,12.272,11.025c4.521-0.29,6.837-5.964,12.43-11.474  C80.477,7.149,81.605,3.017,88.232,9.799c5.369,5.494,0.158,10.109-16.656,27.862c-8.896,9.392-14.348,15.181-18.582,17.244  c-1.024,0.596-2.05,0.875-3.126,0.848c-1.077,0.028-2.103-0.252-3.127-0.848c-4.235-2.063-9.685-7.854-18.582-17.244  C11.346,19.908,5.982,15.14,11.504,9.799z M54.257,62.026c-0.1,0.124-0.198,0.247-0.297,0.37c-1.567,1.951-3.185,3.967-4.122,4.257  c-0.898-0.53-2.717-2.646-4.068-4.216c-0.131-0.151-0.263-0.305-0.396-0.459c1.397,0.656,2.856,0.988,4.348,0.988h0.291  C51.468,62.967,52.892,62.65,54.257,62.026z M71.576,69.609c-8.896,9.393-14.348,15.182-18.582,17.244  c-1.024,0.598-2.05,0.877-3.126,0.85c-1.077,0.027-2.103-0.252-3.127-0.85c-4.235-2.064-9.685-7.852-18.582-17.244  C11.346,51.856,5.982,47.089,11.504,41.748c6.777-6.557,7.906-2.2,26.088,15.713c5.592,5.511,8.754,11.249,12.271,11.024  c4.522-0.291,6.837-5.964,12.429-11.475c18.182-17.912,19.312-22.044,25.939-15.263C93.602,47.242,88.391,51.856,71.576,69.609z"></path></svg>