<?xml version="1.0" encoding="utf-8"?>
<!-- Generator: Adobe Illustrator 20.0.0, SVG Export Plug-In . SVG Version: 6.00 Build 0)  -->
<svg version="1.1" id="Layer_1" xmlns="http://www.w3.org/2000/svg" xmlns:xlink="http://www.w3.org/1999/xlink" x="0px" y="0px"
	 viewBox="0 0 100 100" style="enable-background:new 0 0 100 100;" xml:space="preserve">
<style type="text/css">
	.st0{fill:#4ABA52;}
</style>
<path class="st0" d="M96,64.2c-0.1-0.5-0.3-0.9-0.8-1.1c-6.7-3.7-14.4-5.3-22.1-4.7c0.8-0.8,1.5-1.7,2.2-2.6
	c6.4-8.1,9.9-17.8,10-28.2c0-0.5-0.2-0.9-0.6-1.2c-0.4-0.3-0.9-0.4-1.3-0.3C75,28.4,67.4,33,61.4,39.3C61,28.9,57.5,19,51.2,10.6
	c-0.3-0.4-0.7-0.6-1.2-0.6s-0.9,0.2-1.2,0.6C42.5,19,39,28.9,38.6,39.3C32.6,33,25,28.4,16.5,26.2c-0.5-0.1-0.9,0-1.3,0.3
	c-0.4,0.3-0.6,0.7-0.6,1.2c0.2,10.3,3.7,20,10,28.2c0.7,0.9,1.4,1.8,2.2,2.6c-7.6-0.7-15.4,1-22.1,4.7c-0.4,0.2-0.7,0.6-0.8,1.1
	c-0.1,0.5,0.1,0.9,0.4,1.3c6,6,13.6,9.8,21.9,11.1c-3.5,3-6.3,6.8-8.1,11.1c-0.2,0.4-0.2,0.9,0.1,1.3s0.6,0.7,1.1,0.7
	c1.3,0.2,2.6,0.2,3.9,0.2c5.3,0,10.5-1.4,15.2-4.1c2.6-1.5,4.9-3.3,6.9-5.4v4.2c0,2.6,2.1,4.6,4.6,4.6s4.6-2.1,4.6-4.6v-4.2
	c2,2.1,4.3,3.9,6.9,5.4c4.6,2.7,9.9,4.1,15.2,4.1c0,0,0,0,0,0c1.3,0,2.6-0.1,3.9-0.2c0.5-0.1,0.9-0.3,1.1-0.7s0.3-0.9,0.1-1.3
	c-1.8-4.3-4.6-8.1-8.1-11.1c8.4-1.2,16-5,21.9-11.1C95.9,65.1,96.1,64.7,96,64.2z M82.3,29.7C81.8,38.6,78.6,46.9,73,54
	c-1.5,1.9-3.1,3.6-4.8,5.2c-6.1,1.3-11.7,4.1-16.5,8c0.8-8.3,4-16.1,9.2-22.7C66.4,37.4,73.8,32.3,82.3,29.7z M50,14.1
	c5.5,8,8.4,17.3,8.4,27.1c0,0.5,0,1.1,0,1.6c-4,5.1-6.8,10.9-8.4,17c-1.6-6.1-4.4-11.9-8.4-17c0-0.5,0-1.1,0-1.6
	C41.6,31.4,44.5,22.1,50,14.1z M17.7,29.7c8.5,2.7,15.9,7.7,21.4,14.8c5.2,6.6,8.4,14.4,9.2,22.7c-4.8-4-10.4-6.7-16.5-8
	c-1.7-1.6-3.3-3.3-4.8-5.2C21.4,46.9,18.2,38.6,17.7,29.7z M28.6,61.6c7.1,1,13.6,4.1,18.8,8.8c-6.3,3-13.5,4.2-20.6,3.2
	c-7.1-1-13.6-4-18.8-8.8C14.4,61.7,21.6,60.6,28.6,61.6z M37,83.3c-4.6,2.6-9.8,3.9-15.1,3.6c2.1-4,5.1-7.4,8.9-10
	c0.4,0,0.8,0,1.2,0c5,0,9.9-1,14.6-2.9C44.2,77.9,40.9,81,37,83.3z M50,86.3c-0.9,0-1.6-0.7-1.6-1.6v-7.8C49,76,49.5,75,50,74.1
	c0.5,0.9,1,1.8,1.6,2.7v7.8C51.6,85.6,50.9,86.3,50,86.3z M78.1,86.9c-0.5,0-0.9,0-1.4,0h0c-4.8,0-9.5-1.3-13.7-3.7
	c-4-2.3-7.2-5.4-9.6-9.2C58.1,76,63,76.9,68,76.9c0,0,0,0,0,0c0.4,0,0.8,0,1.2,0C73,79.5,76,82.9,78.1,86.9z M73.1,73.6
	c-1.7,0.2-3.4,0.4-5.1,0.4c0,0,0,0,0,0c-5.3,0-10.6-1.2-15.4-3.5c5.3-4.8,11.7-7.8,18.8-8.8c7-1,14.2,0.1,20.6,3.2
	C86.7,69.5,80.2,72.6,73.1,73.6z"/>
</svg>
