<?xml version="1.0" encoding="utf-8"?>
<!-- Generator: Adobe Illustrator 20.0.0, SVG Export Plug-In . SVG Version: 6.00 Build 0)  -->
<svg version="1.1" id="Layer_1" xmlns="http://www.w3.org/2000/svg" xmlns:xlink="http://www.w3.org/1999/xlink" x="0px" y="0px"
	 viewBox="0 0 100 100" style="enable-background:new 0 0 100 100;" xml:space="preserve">
<g>
	<path d="M46,59.3c1.3-0.3,2.5-0.7,3.7-1.2c1.1-0.5,2.2-1,3.1-1.6c0.9-0.5,1.6-1.1,2.1-1.5c0.2-0.2,0.4-0.4,0.6-0.5
		c0.1-0.1,0.2-0.2,0.2-0.2s-0.1,0-0.3-0.1c-0.2,0-0.4-0.1-0.7-0.2c-0.6-0.1-1.5-0.3-2.6-0.3c-1-0.1-2.2,0-3.5,0.1
		c-1.2,0.1-2.5,0.4-3.8,0.7c-1.3,0.3-2.5,0.7-3.7,1.2c-0.4,0.1-0.7,0.3-1,0.5c0.2-0.2,0.4-0.4,0.6-0.5c0.6-0.5,1.2-1.1,1.7-1.7
		c1.2-1.2,2.3-2.5,3.4-3.9c1.1-1.4,2-2.9,2.8-4.3c0.8-1.4,1.5-2.8,2-4.1c0.5-1.3,0.9-2.4,1.1-3.2c0.1-0.4,0.2-0.7,0.2-0.9
		c0-0.2,0.1-0.3,0.1-0.3s-0.1,0-0.3,0.2c-0.2,0.1-0.5,0.3-0.9,0.5c-0.7,0.4-1.7,1.1-2.8,1.9c-1.1,0.8-2.2,1.9-3.4,3.1
		c-1.2,1.2-2.3,2.5-3.4,3.9c-1.1,1.4-2,2.8-2.9,4.3c-0.3,0.6-0.7,1.2-1,1.8c0.3-1.2,0.5-2.5,0.7-3.9c0.2-2,0.4-4.1,0.4-6.2
		c0-2.1-0.1-4.2-0.4-6.2c-0.2-2-0.6-3.8-1-5.4c-0.4-1.6-0.9-2.9-1.2-3.8c-0.4-0.9-0.7-1.4-0.7-1.4s-0.3,0.5-0.7,1.4
		c-0.4,0.9-0.8,2.2-1.2,3.8c-0.4,1.6-0.8,3.4-1,5.4c-0.2,2-0.4,4.1-0.4,6.2c0,2.1,0.1,4.2,0.4,6.2c0.2,1.4,0.4,2.7,0.7,3.9
		c-0.3-0.6-0.6-1.2-1-1.8c-0.8-1.4-1.8-2.9-2.9-4.3c-1.1-1.4-2.2-2.7-3.4-3.9c-1.2-1.2-2.3-2.2-3.4-3.1c-1.1-0.8-2-1.5-2.8-1.9
		c-0.4-0.2-0.7-0.4-0.9-0.5c-0.2-0.1-0.3-0.2-0.3-0.2s0,0.1,0.1,0.3c0.1,0.2,0.1,0.6,0.2,0.9c0.2,0.8,0.6,1.9,1.1,3.2
		c0.5,1.3,1.2,2.7,2,4.1c0.8,1.4,1.8,2.9,2.8,4.3c1.1,1.4,2.2,2.7,3.4,3.9c0.6,0.6,1.2,1.1,1.7,1.7c0.2,0.2,0.4,0.4,0.6,0.5
		c-0.3-0.2-0.7-0.3-1-0.5c-1.2-0.5-2.4-0.9-3.7-1.2c-1.3-0.3-2.6-0.6-3.8-0.7c-1.2-0.1-2.4-0.1-3.5-0.1c-1,0.1-1.9,0.2-2.5,0.3
		c-0.3,0.1-0.6,0.1-0.7,0.2c-0.2,0-0.3,0.1-0.3,0.1s0.1,0.1,0.2,0.2c0.1,0.1,0.3,0.3,0.6,0.5c0.5,0.4,1.2,1,2.1,1.5
		c0.9,0.5,1.9,1.1,3.1,1.6c1.1,0.5,2.4,0.9,3.7,1.2c1.3,0.3,2.6,0.6,3.8,0.7c0.8,0.1,1.6,0.1,2.3,0.1c-0.9,0.3-1.7,0.7-2.6,1.2
		c-0.8,0.5-1.6,1-2.2,1.5c-0.7,0.5-1.3,1.1-1.8,1.7c-0.5,0.5-0.9,1-1.1,1.4c-0.2,0.4-0.4,0.6-0.4,0.6s0.3,0,0.7,0
		c0.5,0,1.1-0.1,1.8-0.3c0.7-0.2,1.5-0.4,2.3-0.7c0.8-0.3,1.6-0.7,2.4-1.2c1.6-0.9,3-2.1,4-3.2c0.5-0.5,0.9-1,1.1-1.4
		c0.1-0.1,0.1-0.2,0.2-0.3c0,0,0.1,0,0.1,0c0,0,0.1,0,0.1,0c0,0.1,0.1,0.2,0.2,0.3c0.2,0.4,0.6,0.9,1.1,1.4c1,1.1,2.4,2.3,4,3.2
		c0.8,0.5,1.6,0.9,2.4,1.2c0.8,0.3,1.6,0.6,2.3,0.7c0.7,0.2,1.3,0.2,1.8,0.3c0.4,0,0.7,0,0.7,0s-0.1-0.2-0.4-0.6
		c-0.2-0.4-0.6-0.9-1.1-1.4c-0.5-0.5-1.1-1.1-1.8-1.7c-0.7-0.5-1.4-1.1-2.2-1.5c-0.8-0.5-1.7-0.9-2.6-1.2c0.7,0,1.5,0,2.3-0.1
		C43.4,59.9,44.7,59.6,46,59.3z"/>
	<path d="M38.8,75.1c-1.2,0.2-2.4,0.2-3.6,0.2c-15.3,0-27.8-12.5-27.8-27.8c0-15.3,12.5-27.8,27.8-27.8S63,32.3,63,47.6
		c0,3.9-0.8,7.5-2.2,10.9c0.8-0.8,1.6-1.5,2.5-2.3l1.8-1.6l2.3-2c0.3-1.6,0.4-3.3,0.4-5.1c0-18-14.6-32.6-32.6-32.6
		c-18,0-32.6,14.6-32.6,32.6s14.6,32.6,32.6,32.6c2.6,0,5.2-0.3,7.6-0.9l-3-3L38.8,75.1z"/>
	<path d="M96.6,36.3c-1.5,0.5-2.9,1-4.2,1.6c-1.4,0.6-2.7,1.2-4,1.9c-0.7,0.3-1.3,0.7-1.9,1c-0.6,0.3-1.3,0.7-1.9,1l-1.9,1.1
		c-0.6,0.4-1.2,0.8-1.8,1.1c-1.2,0.7-2.4,1.5-3.6,2.3c-1.2,0.8-2.3,1.6-3.4,2.4c-1.2,0.8-2.2,1.7-3.3,2.5c-1.1,0.8-2.2,1.8-3.2,2.6
		l-1.6,1.3l-1.6,1.4c-1,0.9-2.1,1.9-3.1,2.8c-1,0.9-2,1.9-3,2.9c-1,1-2,2-2.9,3c-1,1-1.9,2-2.8,3.1L51,70l-1.3,1.6
		c-0.5,0.6-1,1.2-1.4,1.7l-0.7-0.4c-0.9-0.6-1.8-1.1-2.8-1.6c-0.9-0.5-1.9-1-2.8-1.5c-0.5-0.3-1-0.5-1.5-0.7c-0.5-0.2-1-0.5-1.5-0.7
		l-1.5-0.7L36,67l-1.6-0.6c-0.5-0.2-1.1-0.4-1.6-0.6l-0.7,0.7l8.6,8.9l8.7,8.9l0.6,0.7l0.7-0.7l11.8-11.7c4-3.9,7.8-7.9,11.7-11.8
		l5.8-5.9l5.8-6c1.9-2,3.9-4,5.8-6l5.8-6L96.6,36.3z"/>
</g>
</svg>
